<svg xmlns="http://www.w3.org/2000/svg" viewBox="0 0 730 147.38"><defs><style>.cls-1{fill:#d76f2c;}.cls-2{fill:#3e68aa;}.cls-3{fill:#636466;}</style></defs><title>Recurso 15</title><g id="Capa_2" data-name="Capa 2"><g id="Layer_1" data-name="Layer 1"><path class="cls-1" d="M67.43,109.74l54-72.4a33.18,33.18,0,0,1,12.32-10.27,33.56,33.56,0,0,1,29.56,0,33.15,33.15,0,0,1,12.31,10.27l54,72.4H198.08L155.25,52.55a8.08,8.08,0,0,0-13.5,0L98.91,109.74Z"/><path class="cls-2" d="M410.77,26.17l42.84,57.19a8.07,8.07,0,0,0,13.49,0l42.84-57.19h31.49l-54,72.39a33.17,33.17,0,0,1-12.31,10.28,33.56,33.56,0,0,1-29.56,0,33.12,33.12,0,0,1-12.32-10.28l-54-72.39Z"/><path class="cls-3" d="M430.81,7.27l25.53,34.08a4.82,4.82,0,0,0,8,0L489.9,7.27h18.76L476.5,50.41a19.76,19.76,0,0,1-7.34,6.12,20,20,0,0,1-17.61,0,19.76,19.76,0,0,1-7.34-6.12L412.05,7.27Z"/><path class="cls-1" d="M267.33,110.26a41.11,41.11,0,0,1-16.49-3.32,41.85,41.85,0,0,1-22.37-22.37,42.59,42.59,0,0,1,0-33,41.85,41.85,0,0,1,22.37-22.37,41.11,41.11,0,0,1,16.49-3.32H338.2a41.1,41.1,0,0,1,16.48,3.32A41.92,41.92,0,0,1,377.06,51.6a42.71,42.71,0,0,1,0,33,41.92,41.92,0,0,1-22.38,22.37,41.1,41.1,0,0,1-16.48,3.32Zm0-58.66a16.46,16.46,0,0,0-16.49,16.49,16.46,16.46,0,0,0,16.49,16.48H338.2a16.46,16.46,0,0,0,16.48-16.48A16.46,16.46,0,0,0,338.2,51.6Z"/><path class="cls-2" d="M651,110.26H583.77a41.11,41.11,0,0,1-16.49-3.32,41.85,41.85,0,0,1-22.37-22.37,42.59,42.59,0,0,1,0-33,41.85,41.85,0,0,1,22.37-22.37,41.11,41.11,0,0,1,16.49-3.32h66.16a41.1,41.1,0,0,1,16.48,3.32A41.92,41.92,0,0,1,688.79,51.6a41.27,41.27,0,0,1,3.31,16.49v42.17H666.41V68.09A16.46,16.46,0,0,0,649.93,51.6H583.77a16.46,16.46,0,0,0-16.49,16.49,16.46,16.46,0,0,0,16.49,16.48H651Z"/><path class="cls-2" d="M730,110.26H704.31V0H730Z"/><path class="cls-1" d="M0,109.74l54-72.4A33.15,33.15,0,0,1,66.29,27.07a33.56,33.56,0,0,1,29.56,0,33.26,33.26,0,0,1,12.32,10.27l54,72.4H130.66L87.82,52.55a8.08,8.08,0,0,0-13.5,0L31.49,109.74Z"/><path class="cls-3" d="M385.51,136.73v10.65h-6.22V117.5h13.35q4.69,0,7.25,2.38c1.68,1.57,2.52,3.87,2.52,6.88q0,5.05-3,7.77a8.83,8.83,0,0,1-6.12,2.2Zm0-5.12h5.79c1.84,0,3.14-.44,3.89-1.32a5.57,5.57,0,0,0,0-6.37c-.75-.87-2.05-1.3-3.89-1.3h-5.79Z"/><path class="cls-3" d="M470.58,135.53v11.85h-6.22V117.5h16.21a7.91,7.91,0,0,1,5.89,2.06,8.14,8.14,0,0,1,2.27,6,7.31,7.31,0,0,1-5.12,7.39,7.56,7.56,0,0,1,3,1.88,5.27,5.27,0,0,1,.94,2.83q.18,2.07.28,6.14a3.52,3.52,0,0,0,.37,1.62,2.53,2.53,0,0,0,1,.82v1.12h-6.69a6.93,6.93,0,0,1-.77-2.08,20.44,20.44,0,0,1-.16-3c0-.6,0-1.29,0-2.06,0-.58,0-1,0-1.18a3.93,3.93,0,0,0-.53-2.25,3.82,3.82,0,0,0-3.32-1.32Zm0-5.12h7.49a9.66,9.66,0,0,0,2.07-.17,3.14,3.14,0,0,0,1.24-.61,4,4,0,0,0,1.11-3.19,3.73,3.73,0,0,0-1.13-3,3.15,3.15,0,0,0-1.68-.7,14.62,14.62,0,0,0-1.61-.08h-7.49Z"/><path class="cls-3" d="M557.06,117.5v29.88h-6.22V117.5Z"/><path class="cls-3" d="M638.18,147.38,626,126.72v20.66h-6.22V117.5h6.38l12,20.32V117.5h6.22v29.88Z"/><path class="cls-3" d="M720.19,122.62v24.76H714V122.62h-9.2V117.5H729v5.12Z"/></g></g></svg>