<?xml version="1.0" encoding="utf-8"?>
<!-- Generator: Adobe Illustrator 23.0.1, SVG Export Plug-In . SVG Version: 6.00 Build 0)  -->
<svg version="1.1" id="Capa_1" xmlns="http://www.w3.org/2000/svg" xmlns:xlink="http://www.w3.org/1999/xlink" x="0px" y="0px"
	 viewBox="0 0 771.729 175.362" enable-background="new 0 0 771.729 175.362" xml:space="preserve">
<g>
	<path fill="#D07400" d="M88.293,123.73l53.976-72.397c3.427-4.569,7.53-7.996,12.316-10.279c4.782-2.283,9.709-3.427,14.778-3.427
		c5.067,0,9.994,1.145,14.78,3.427c4.783,2.283,8.889,5.71,12.316,10.279l53.976,72.397h-31.486l-42.838-57.189
		c-1.714-2.429-3.963-3.64-6.748-3.64c-2.784,0-5.033,1.212-6.747,3.64l-42.838,57.189H88.293z"/>
	<path fill="#3A64A5" d="M431.636,40.155l42.838,57.189c1.714,2.429,3.963,3.64,6.747,3.64c2.785,0,5.034-1.212,6.748-3.64
		l42.838-57.189h31.486l-53.976,72.397c-3.427,4.569-7.533,7.996-12.316,10.279c-4.785,2.283-9.712,3.427-14.78,3.427
		c-5.07,0-9.997-1.145-14.778-3.427c-4.786-2.283-8.889-5.71-12.316-10.279L400.15,40.155H431.636z"/>
	<path fill="#67666A" d="M451.677,21.259l25.524,34.075c1.021,1.447,2.361,2.169,4.02,2.169c1.659,0,2.999-0.722,4.021-2.169
		l25.524-34.075h18.76l-32.161,43.137c-2.042,2.722-4.489,4.764-7.338,6.124c-2.851,1.36-5.787,2.042-8.806,2.042
		c-3.021,0-5.956-0.682-8.805-2.042c-2.852-1.36-5.296-3.402-7.338-6.124l-32.161-43.137H451.677z"/>
	<path fill="#D07400" d="M288.191,124.251c-5.854,0-11.348-1.103-16.485-3.318c-5.139-2.213-9.601-5.21-13.382-8.992
		c-3.784-3.781-6.781-8.243-8.992-13.382c-2.215-5.138-3.319-10.632-3.319-16.485c0-5.852,1.104-11.348,3.319-16.485
		c2.211-5.139,5.208-9.599,8.992-13.382c3.781-3.781,8.243-6.778,13.382-8.992c5.138-2.211,10.632-3.319,16.485-3.319h70.868
		c5.852,0,11.348,1.107,16.487,3.319c5.138,2.214,9.598,5.212,13.382,8.992c3.779,3.783,6.777,8.243,8.992,13.382
		c2.211,5.138,3.318,10.634,3.318,16.485c0,5.854-1.106,11.348-3.318,16.485c-2.215,5.139-5.213,9.601-8.992,13.382
		c-3.784,3.782-8.244,6.78-13.382,8.992c-5.139,2.215-10.635,3.318-16.487,3.318H288.191z M288.191,65.589
		c-4.569,0-8.457,1.605-11.669,4.817c-3.212,3.212-4.817,7.102-4.817,11.669c0,4.569,1.605,8.457,4.817,11.669
		c3.212,3.212,7.1,4.817,11.669,4.817h70.868c4.567,0,8.458-1.605,11.669-4.817c3.212-3.212,4.818-7.1,4.818-11.669
		c0-4.567-1.606-8.457-4.818-11.669c-3.211-3.212-7.102-4.817-11.669-4.817H288.191z"/>
	<path fill="#3A64A5" d="M671.861,124.251h-67.229c-5.854,0-11.348-1.103-16.485-3.318c-5.139-2.213-9.601-5.21-13.382-8.992
		c-3.784-3.781-6.781-8.243-8.992-13.382c-2.215-5.138-3.319-10.632-3.319-16.485c0-5.852,1.104-11.348,3.319-16.485
		c2.211-5.139,5.208-9.599,8.992-13.382c3.781-3.781,8.243-6.778,13.382-8.992c5.138-2.211,10.631-3.319,16.485-3.319h66.158
		c5.851,0,11.348,1.107,16.485,3.319c5.139,2.214,9.598,5.212,13.382,8.992c3.781,3.783,6.777,8.243,8.992,13.382
		c2.211,5.138,3.319,10.634,3.319,16.485v42.177h-25.693V82.074c0-4.567-1.606-8.457-4.817-11.669
		c-3.212-3.212-7.103-4.817-11.669-4.817h-66.158c-4.569,0-8.457,1.605-11.669,4.817c-3.212,3.212-4.817,7.102-4.817,11.669
		c0,4.569,1.605,8.457,4.817,11.669c3.212,3.212,7.1,4.817,11.669,4.817h67.229V124.251z"/>
	<path fill="#3A64A5" d="M750.864,124.251h-25.692V13.989h25.692V124.251z"/>
	<path fill="#D07400" d="M20.864,123.73L74.84,51.333c3.427-4.569,7.53-7.996,12.316-10.279c4.782-2.283,9.709-3.427,14.778-3.427
		c5.067,0,9.994,1.145,14.78,3.427c4.783,2.283,8.889,5.71,12.316,10.279l53.976,72.397h-31.486l-42.838-57.189
		c-1.714-2.429-3.963-3.64-6.748-3.64c-2.784,0-5.033,1.212-6.747,3.64L52.35,123.73H20.864z"/>
	<g>
		<path fill="#67666A" d="M406.372,150.723v10.65h-6.221v-29.889h13.354c3.133,0,5.551,0.794,7.253,2.382
			c1.675,1.575,2.513,3.871,2.513,6.887c0,3.363-1.006,5.953-3.019,7.768c-1.635,1.469-3.675,2.202-6.12,2.202H406.372z
			 M406.372,145.598h5.794c1.838,0,3.134-0.44,3.891-1.321c0.662-0.747,0.993-1.809,0.993-3.183c0-1.361-0.331-2.423-0.993-3.184
			c-0.756-0.867-2.053-1.301-3.891-1.301h-5.794V145.598z"/>
		<path fill="#67666A" d="M491.442,149.522v11.852h-6.221v-29.889h16.211c2.566,0,4.532,0.688,5.897,2.062
			c1.512,1.521,2.27,3.53,2.27,6.026c0,3.616-1.71,6.079-5.127,7.387c1.324,0.508,2.317,1.135,2.978,1.882
			c0.486,0.574,0.798,1.515,0.933,2.823c0.121,1.388,0.215,3.437,0.283,6.146c0.028,0.708,0.149,1.248,0.366,1.622
			c0.202,0.307,0.526,0.58,0.973,0.82v1.121h-6.688c-0.405-0.747-0.661-1.441-0.769-2.082c-0.109-0.707-0.162-1.694-0.162-2.963
			c0-0.601,0.006-1.288,0.02-2.063c0.013-0.573,0.02-0.967,0.02-1.181c0-1.001-0.175-1.748-0.526-2.242
			c-0.636-0.881-1.744-1.321-3.323-1.321H491.442z M491.442,144.397h7.496c0.905,0,1.594-0.057,2.068-0.17
			c0.472-0.113,0.884-0.317,1.236-0.611c0.742-0.627,1.115-1.688,1.115-3.183c0-1.414-0.379-2.429-1.135-3.043
			c-0.486-0.4-1.048-0.634-1.682-0.7c-0.446-0.054-0.98-0.08-1.601-0.08h-7.496V144.397z"/>
		<path fill="#67666A" d="M577.929,131.485v29.889h-6.221v-29.889H577.929z"/>
		<path fill="#67666A" d="M659.048,161.374l-12.158-20.66v20.66h-6.22v-29.889h6.383l11.996,20.319v-20.319h6.22v29.889H659.048z"/>
		<path fill="#67666A" d="M741.058,136.61v24.764h-6.22V136.61h-9.201v-5.125h24.235v5.125H741.058z"/>
	</g>
</g>
</svg>
